<svg width="1460" height="1200" viewBox="0 0 1460 1200" fill="none" xmlns="http://www.w3.org/2000/svg">
<g filter="url(#filter0_d_1_29)">
<rect width="1460" height="1192" fill="#46C5D3"/>
</g>
<g opacity="0.223354">
<mask id="mask0_1_29" style="mask-type:luminance" maskUnits="userSpaceOnUse" x="626" y="-215" width="931" height="666">
<path fill-rule="evenodd" clip-rule="evenodd" d="M626 -215H1556.3V450.909H626V-215Z" fill="white"/>
</mask>
<g mask="url(#mask0_1_29)">
<path fill-rule="evenodd" clip-rule="evenodd" d="M901.663 -387.407C882.228 -371.083 817.491 -315.925 757.758 -255.951C686.457 -184.365 595.357 -80.7477 619.077 6.03432C632.875 56.5076 677.145 76.2506 716.948 92.8687C745.578 104.823 771.897 115.157 782.902 134.151C809.208 179.549 747.517 271.353 833.061 371.695C918.606 472.038 1043.1 418.778 1124.73 400.308C1206.36 381.839 1233.65 452.219 1339.09 445.008C1443.38 437.877 1557.39 155.007 1547.44 64.4199L901.663 -387.407Z" fill="white"/>
<path fill-rule="evenodd" clip-rule="evenodd" d="M901.514 -387.59L1278.68 -123.495C1278.64 -123.407 1278.59 -123.314 1278.54 -123.217L1112.22 -239.673C1111.91 -239.892 1111.51 -239.935 1111.16 -239.79C1110.81 -239.646 1110.55 -239.328 1110.49 -238.953C1110.49 -238.948 1110.18 -237.243 1109.62 -234.162C1107.65 -223.379 1102.46 -195.867 1095.74 -166.702C1089.03 -137.546 1080.76 -106.694 1072.72 -89.4037C1063.44 -69.4177 1056.54 -52.4098 1052.53 -35.685C1048.52 -18.9621 1047.41 -2.52809 1049.68 16.2151C1050.77 25.1534 1053.82 35.9418 1058.46 47.5906C1056.46 49.2694 1054.49 50.9721 1052.54 52.6805C1040.05 63.635 1028.88 74.7296 1022.73 79.5082C1016.32 84.5041 1006.43 95.3567 998.054 105.015C996.266 107.078 994.552 109.083 992.961 110.962C992.823 110.529 992.683 110.118 992.539 109.728C991.944 108.19 991.356 107.008 990.343 106.264C990.342 106.263 990.342 106.263 990.342 106.263C990.062 106.067 989.735 105.912 989.373 105.841C988.506 105.671 987.638 105.826 986.845 106.157C984.927 106.983 983.189 108.768 981.561 110.88C982.521 107.762 983.301 104.514 983.517 101.599C983.631 100.032 983.585 98.5573 983.286 97.2266C982.989 95.9003 982.423 94.6933 981.462 93.7913C981.183 93.5313 980.886 93.2905 980.576 93.073C977.269 90.7984 972.43 90.6922 967.781 91.8671C963.13 93.0711 958.611 95.6081 956.049 99.2402C955.251 100.38 954.652 101.636 954.334 102.984C952.581 110.478 950.773 120.704 950.153 124.292C948.969 123.891 947.053 123.286 944.817 122.753C941.073 121.869 936.467 121.143 932.706 122.017C931.369 122.336 930.277 122.624 929.387 122.961C928.508 123.307 927.777 123.674 927.255 124.392C926.836 124.96 926.736 125.759 926.917 126.408C927.176 127.395 927.804 128.264 928.739 129.379C929.681 130.485 930.963 131.799 932.607 133.446C935.914 136.74 937.627 141.641 938.707 147.489C939.793 153.327 940.251 160.048 941.238 166.838C942.543 175.791 945.052 187.415 946.607 194.284C946.26 193.823 945.904 193.37 945.55 192.943C944.819 192.069 944.118 191.316 943.391 190.802C943.029 190.557 942.659 190.339 942.137 190.267C941.879 190.236 941.568 190.26 941.273 190.389C940.98 190.512 940.732 190.734 940.571 190.967C940.148 191.618 940.117 192.257 940.128 193.094C940.155 193.93 940.304 194.978 940.589 196.337C941.307 199.714 943.661 204.862 947.142 211.112C952.362 220.46 960.123 232.142 968.664 242.962C977.211 253.782 986.51 263.73 994.913 269.62C994.924 269.627 994.937 269.636 994.946 269.643C1010.68 280.656 1023.58 281.022 1029.89 280.251C1029.84 280.291 1029.8 280.331 1029.76 280.372C1027.99 282.059 1025.89 284.204 1024.49 286.185C1023.85 287.116 1023.34 287.998 1023.11 288.916C1023 289.375 1022.96 289.865 1023.09 290.372C1023.21 290.869 1023.54 291.349 1023.98 291.654C1023.98 291.659 1023.99 291.664 1024 291.669C1024.37 291.931 1024.8 292.085 1025.26 292.175C1027 292.502 1028.98 292.141 1031.06 291.517C1036.02 290 1041.62 286.762 1043.69 285.515C1043.9 285.748 1044.15 286.027 1044.44 286.342C1043.78 286.217 1043.07 286.479 1042.66 287.069C1042.09 287.876 1042.29 288.983 1043.1 289.547L1058.62 300.417C1059.43 300.981 1060.53 300.788 1061.1 299.981C1061.66 299.176 1061.47 298.067 1060.66 297.503L1057.17 295.056C1057.93 295.253 1058.71 295.377 1059.5 295.413C1061.85 295.517 1063.86 295.379 1065.47 295.028C1067.06 294.658 1068.31 294.151 1069.08 293.102C1069.33 292.748 1069.51 292.312 1069.54 291.855C1069.59 291.166 1069.34 290.507 1068.94 289.951C1068.54 289.388 1067.98 288.879 1067.26 288.375C1065.32 287.015 1063.82 285.664 1062.78 284.618L1063.31 284.656C1063.63 284.752 1064.54 285.023 1065.92 285.397L1068.08 286.91C1068.85 287.451 1069.9 287.295 1070.48 286.573C1074.12 287.449 1078.8 288.449 1083.78 289.174C1089.29 289.975 1095.16 290.443 1100.42 290.024C1105.67 289.593 1110.37 288.308 1113.46 285.333C1114.31 284.506 1115.15 283.482 1115.99 282.28C1118.71 278.391 1121.49 272.643 1124.25 266.073C1128.37 256.226 1132.4 244.547 1135.79 234.788C1137.48 229.91 1139.01 225.511 1140.3 222.075C1140.95 220.356 1141.53 218.881 1142.05 217.713C1142.56 216.549 1143.01 215.682 1143.31 215.259L1143.44 215.084C1144.66 213.637 1146.31 212.497 1148.07 211.23C1149.81 209.963 1151.66 208.555 1153.11 206.483C1153.87 205.405 1154.51 204.153 1154.96 202.678C1156.42 203.122 1157.95 203.05 1159.51 202.56C1169.09 212.682 1182.88 224.209 1202.2 237.741C1217.02 248.121 1235.11 259.677 1257.07 272.666C1291.38 292.958 1321.67 309.317 1346.52 316.376C1358.95 319.901 1370.05 321.11 1379.64 319.23C1389.23 317.359 1397.28 312.326 1403.37 303.606C1405.69 300.284 1407.74 296.432 1409.51 292.017C1414.47 279.623 1425.01 258.858 1438 234.749C1457.49 198.579 1482.52 154.834 1502.67 120.139C1512.75 102.79 1521.61 87.7042 1527.95 76.9533C1531.12 71.5797 1533.65 67.2888 1535.4 64.3411C1537.15 61.3951 1538.1 59.7978 1538.1 59.7942C1538.4 59.2957 1538.27 58.6529 1537.8 58.3147L1537.15 59.2213L1537.8 58.3147L1514.06 41.3165L1547.3 64.5913C1554.01 125.561 1504.65 273.585 1439.87 366.073C1408.38 411.042 1373.24 442.88 1339.13 445.201C1233.72 452.375 1206.41 381.966 1124.82 400.41C1053.17 416.604 948.518 459.613 866.128 401.923C854.679 393.906 843.649 383.933 833.209 371.683C747.651 271.284 809.292 179.478 782.976 134.059C779.075 127.327 773.256 121.682 766.092 116.666C753.033 107.522 735.509 100.468 717.024 92.7415C698.535 85.0122 679.088 76.6123 662.173 64.7683C642.674 51.1148 626.542 32.8854 619.146 5.84867C605.684 -43.3659 629.111 -97.978 664.91 -149.092C692.259 -188.143 726.831 -225.152 757.694 -256.153C817.389 -316.121 882.09 -371.269 901.514 -387.59ZM1080.59 295.673C1081.4 296.238 1082.51 296.044 1083.07 295.238C1083.64 294.431 1083.44 293.324 1082.63 292.758L1076.72 288.618C1075.91 288.053 1074.81 288.248 1074.24 289.055C1073.68 289.861 1073.87 290.968 1074.68 291.532L1080.59 295.673ZM1075.86 302.427C1076.67 302.993 1077.78 302.796 1078.34 301.991C1078.91 301.186 1078.71 300.078 1077.9 299.513L1071.99 295.372C1071.18 294.808 1070.08 295.003 1069.51 295.808C1068.95 296.613 1069.14 297.722 1069.95 298.286L1075.86 302.427ZM1071.14 309.18C1071.94 309.746 1073.05 309.551 1073.61 308.744C1074.18 307.939 1073.98 306.831 1073.18 306.266L1067.26 302.125C1066.46 301.56 1065.35 301.756 1064.78 302.561C1064.22 303.368 1064.42 304.475 1065.22 305.039L1071.14 309.18Z" fill="white"/>
</g>
</g>
<g opacity="0.223354">
<mask id="mask1_1_29" style="mask-type:luminance" maskUnits="userSpaceOnUse" x="949" y="-78" width="931" height="666">
<path fill-rule="evenodd" clip-rule="evenodd" d="M949 -78H1879.3V587.909H949V-78Z" fill="white"/>
</mask>
<g mask="url(#mask1_1_29)">
<path fill-rule="evenodd" clip-rule="evenodd" d="M1224.66 -250.407C1205.23 -234.083 1140.49 -178.925 1080.76 -118.951C1009.46 -47.3651 918.357 56.2523 942.077 143.034C955.875 193.508 1000.14 213.251 1039.95 229.869C1068.58 241.823 1094.9 252.157 1105.9 271.151C1132.21 316.549 1070.52 408.353 1156.06 508.695C1241.61 609.038 1366.1 555.778 1447.73 537.308C1529.36 518.839 1556.65 589.219 1662.09 582.008C1766.38 574.877 1880.39 292.007 1870.44 201.42L1224.66 -250.407Z" fill="white"/>
<path fill-rule="evenodd" clip-rule="evenodd" d="M1224.51 -250.59L1601.68 13.5053C1601.64 13.5933 1601.59 13.6862 1601.54 13.7829L1435.22 -102.673C1434.91 -102.892 1434.51 -102.935 1434.16 -102.79C1433.81 -102.646 1433.55 -102.328 1433.49 -101.953C1433.49 -101.948 1433.18 -100.243 1432.62 -97.1621C1430.65 -86.3791 1425.46 -58.867 1418.74 -29.7024C1412.03 -0.545664 1403.76 30.3056 1395.72 47.5963C1386.44 67.5823 1379.54 84.5902 1375.53 101.315C1371.52 118.038 1370.41 134.472 1372.68 153.215C1373.77 162.153 1376.82 172.942 1381.46 184.591C1379.46 186.269 1377.49 187.972 1375.54 189.681C1363.05 200.635 1351.88 211.73 1345.73 216.508C1339.32 221.504 1329.43 232.357 1321.05 242.015C1319.27 244.078 1317.55 246.083 1315.96 247.962C1315.82 247.529 1315.68 247.118 1315.54 246.728C1314.94 245.19 1314.36 244.008 1313.34 243.264C1313.34 243.263 1313.34 243.263 1313.34 243.263C1313.06 243.067 1312.74 242.912 1312.37 242.841C1311.51 242.671 1310.64 242.826 1309.84 243.157C1307.93 243.983 1306.19 245.768 1304.56 247.88C1305.52 244.762 1306.3 241.514 1306.52 238.599C1306.63 237.032 1306.58 235.557 1306.29 234.227C1305.99 232.9 1305.42 231.693 1304.46 230.791C1304.18 230.531 1303.89 230.291 1303.58 230.073C1300.27 227.798 1295.43 227.692 1290.78 228.867C1286.13 230.071 1281.61 232.608 1279.05 236.24C1278.25 237.38 1277.65 238.636 1277.33 239.984C1275.58 247.478 1273.77 257.704 1273.15 261.292C1271.97 260.891 1270.05 260.286 1267.82 259.753C1264.07 258.869 1259.47 258.143 1255.71 259.017C1254.37 259.336 1253.28 259.624 1252.39 259.961C1251.51 260.307 1250.78 260.674 1250.26 261.392C1249.84 261.96 1249.74 262.759 1249.92 263.408C1250.18 264.395 1250.8 265.264 1251.74 266.379C1252.68 267.485 1253.96 268.799 1255.61 270.446C1258.91 273.74 1260.63 278.641 1261.71 284.489C1262.79 290.327 1263.25 297.048 1264.24 303.838C1265.54 312.791 1268.05 324.415 1269.61 331.284C1269.26 330.823 1268.9 330.37 1268.55 329.943C1267.82 329.069 1267.12 328.316 1266.39 327.802C1266.03 327.557 1265.66 327.339 1265.14 327.267C1264.88 327.236 1264.57 327.26 1264.27 327.389C1263.98 327.512 1263.73 327.734 1263.57 327.967C1263.15 328.618 1263.12 329.257 1263.13 330.094C1263.16 330.93 1263.3 331.978 1263.59 333.337C1264.31 336.714 1266.66 341.862 1270.14 348.112C1275.36 357.46 1283.12 369.142 1291.66 379.962C1300.21 390.782 1309.51 400.73 1317.91 406.62C1317.92 406.627 1317.94 406.636 1317.95 406.643C1333.68 417.656 1346.58 418.022 1352.89 417.251C1352.84 417.291 1352.8 417.331 1352.76 417.372C1350.99 419.059 1348.89 421.204 1347.49 423.185C1346.85 424.116 1346.34 424.998 1346.11 425.916C1346 426.375 1345.96 426.865 1346.09 427.372C1346.21 427.869 1346.54 428.349 1346.98 428.654C1346.98 428.659 1346.99 428.664 1347 428.669C1347.37 428.931 1347.8 429.085 1348.26 429.175C1350 429.502 1351.98 429.141 1354.06 428.517C1359.02 427 1364.62 423.762 1366.69 422.515C1366.9 422.748 1367.15 423.027 1367.44 423.342C1366.78 423.217 1366.07 423.479 1365.66 424.069C1365.09 424.876 1365.29 425.983 1366.1 426.547L1381.62 437.417C1382.43 437.981 1383.53 437.788 1384.1 436.981C1384.66 436.176 1384.47 435.067 1383.66 434.503L1380.17 432.056C1380.93 432.253 1381.71 432.377 1382.5 432.413C1384.85 432.517 1386.86 432.379 1388.47 432.028C1390.06 431.658 1391.31 431.151 1392.08 430.102C1392.33 429.748 1392.51 429.312 1392.54 428.855C1392.59 428.166 1392.34 427.507 1391.94 426.951C1391.54 426.388 1390.98 425.879 1390.26 425.375C1388.32 424.015 1386.82 422.664 1385.78 421.618L1386.31 421.656C1386.63 421.752 1387.54 422.023 1388.92 422.397L1391.08 423.91C1391.85 424.451 1392.9 424.295 1393.48 423.573C1397.12 424.449 1401.8 425.449 1406.78 426.174C1412.29 426.975 1418.16 427.443 1423.42 427.024C1428.67 426.593 1433.37 425.308 1436.46 422.333C1437.31 421.506 1438.15 420.482 1438.99 419.28C1441.71 415.391 1444.49 409.643 1447.25 403.073C1451.37 393.226 1455.4 381.547 1458.79 371.788C1460.48 366.91 1462.01 362.511 1463.3 359.075C1463.95 357.356 1464.53 355.881 1465.05 354.713C1465.56 353.549 1466.01 352.682 1466.31 352.259L1466.44 352.084C1467.66 350.637 1469.31 349.497 1471.07 348.23C1472.81 346.963 1474.66 345.555 1476.11 343.483C1476.87 342.405 1477.51 341.153 1477.96 339.678C1479.42 340.122 1480.95 340.05 1482.51 339.56C1492.09 349.682 1505.88 361.209 1525.2 374.741C1540.02 385.121 1558.11 396.677 1580.07 409.666C1614.38 429.958 1644.67 446.317 1669.52 453.376C1681.95 456.901 1693.05 458.11 1702.64 456.23C1712.23 454.359 1720.28 449.326 1726.37 440.606C1728.69 437.284 1730.74 433.432 1732.51 429.017C1737.47 416.623 1748.01 395.858 1761 371.749C1780.49 335.579 1805.52 291.834 1825.67 257.139C1835.75 239.79 1844.61 224.704 1850.95 213.953C1854.12 208.58 1856.65 204.289 1858.4 201.341C1860.15 198.395 1861.1 196.798 1861.1 196.794C1861.4 196.296 1861.27 195.653 1860.8 195.315L1860.15 196.221L1860.8 195.315L1837.06 178.317L1870.3 201.591C1877.01 262.561 1827.65 410.585 1762.87 503.073C1731.38 548.042 1696.24 579.88 1662.13 582.201C1556.72 589.375 1529.41 518.966 1447.82 537.41C1376.17 553.604 1271.52 596.613 1189.13 538.923C1177.68 530.906 1166.65 520.933 1156.21 508.683C1070.65 408.284 1132.29 316.478 1105.98 271.059C1102.08 264.327 1096.26 258.682 1089.09 253.666C1076.03 244.522 1058.51 237.468 1040.02 229.742C1021.53 222.012 1002.09 213.612 985.173 201.768C965.674 188.115 949.542 169.885 942.146 142.849C928.684 93.6341 952.111 39.022 987.91 -12.0924C1015.26 -51.1433 1049.83 -88.1522 1080.69 -119.153C1140.39 -179.121 1205.09 -234.269 1224.51 -250.59ZM1403.59 432.673C1404.4 433.238 1405.51 433.044 1406.07 432.238C1406.64 431.431 1406.44 430.324 1405.63 429.758L1399.72 425.618C1398.91 425.053 1397.81 425.248 1397.24 426.055C1396.68 426.861 1396.87 427.968 1397.68 428.532L1403.59 432.673ZM1398.86 439.427C1399.67 439.993 1400.78 439.796 1401.34 438.991C1401.91 438.186 1401.71 437.078 1400.9 436.513L1394.99 432.372C1394.18 431.808 1393.08 432.003 1392.51 432.808C1391.95 433.613 1392.14 434.722 1392.95 435.286L1398.86 439.427ZM1394.14 446.18C1394.94 446.746 1396.05 446.551 1396.61 445.744C1397.18 444.939 1396.98 443.831 1396.18 443.266L1390.26 439.125C1389.46 438.56 1388.35 438.756 1387.78 439.561C1387.22 440.368 1387.42 441.475 1388.22 442.039L1394.14 446.18Z" fill="white"/>
</g>
</g>
<g opacity="0.223354">
<mask id="mask2_1_29" style="mask-type:luminance" maskUnits="userSpaceOnUse" x="626" y="-215" width="931" height="666">
<path fill-rule="evenodd" clip-rule="evenodd" d="M626 -215H1556.3V450.909H626V-215Z" fill="white"/>
</mask>
<g mask="url(#mask2_1_29)">
<path fill-rule="evenodd" clip-rule="evenodd" d="M901.663 -387.407C882.228 -371.083 817.491 -315.925 757.758 -255.951C686.457 -184.365 595.357 -80.7477 619.077 6.03432C632.875 56.5076 677.145 76.2506 716.948 92.8687C745.578 104.823 771.897 115.157 782.902 134.151C809.208 179.549 747.517 271.353 833.061 371.695C918.606 472.038 1043.1 418.778 1124.73 400.308C1206.36 381.839 1233.65 452.219 1339.09 445.008C1443.38 437.877 1557.39 155.007 1547.44 64.4199L901.663 -387.407Z" fill="white"/>
<path fill-rule="evenodd" clip-rule="evenodd" d="M901.514 -387.59L1278.68 -123.495C1278.64 -123.407 1278.59 -123.314 1278.54 -123.217L1112.22 -239.673C1111.91 -239.892 1111.51 -239.935 1111.16 -239.79C1110.81 -239.646 1110.55 -239.328 1110.49 -238.953C1110.49 -238.948 1110.18 -237.243 1109.62 -234.162C1107.65 -223.379 1102.46 -195.867 1095.74 -166.702C1089.03 -137.546 1080.76 -106.694 1072.72 -89.4037C1063.44 -69.4177 1056.54 -52.4098 1052.53 -35.685C1048.52 -18.9621 1047.41 -2.52809 1049.68 16.2151C1050.77 25.1534 1053.82 35.9418 1058.46 47.5906C1056.46 49.2694 1054.49 50.9721 1052.54 52.6805C1040.05 63.635 1028.88 74.7296 1022.73 79.5082C1016.32 84.5041 1006.43 95.3567 998.054 105.015C996.266 107.078 994.552 109.083 992.961 110.962C992.823 110.529 992.683 110.118 992.539 109.728C991.944 108.19 991.356 107.008 990.343 106.264C990.342 106.263 990.342 106.263 990.342 106.263C990.062 106.067 989.735 105.912 989.373 105.841C988.506 105.671 987.638 105.826 986.845 106.157C984.927 106.983 983.189 108.768 981.561 110.88C982.521 107.762 983.301 104.514 983.517 101.599C983.631 100.032 983.585 98.5573 983.286 97.2266C982.989 95.9003 982.423 94.6933 981.462 93.7913C981.183 93.5313 980.886 93.2905 980.576 93.073C977.269 90.7984 972.43 90.6922 967.781 91.8671C963.13 93.0711 958.611 95.6081 956.049 99.2402C955.251 100.38 954.652 101.636 954.334 102.984C952.581 110.478 950.773 120.704 950.153 124.292C948.969 123.891 947.053 123.286 944.817 122.753C941.073 121.869 936.467 121.143 932.706 122.017C931.369 122.336 930.277 122.624 929.387 122.961C928.508 123.307 927.777 123.674 927.255 124.392C926.836 124.96 926.736 125.759 926.917 126.408C927.176 127.395 927.804 128.264 928.739 129.379C929.681 130.485 930.963 131.799 932.607 133.446C935.914 136.74 937.627 141.641 938.707 147.489C939.793 153.327 940.251 160.048 941.238 166.838C942.543 175.791 945.052 187.415 946.607 194.284C946.26 193.823 945.904 193.37 945.55 192.943C944.819 192.069 944.118 191.316 943.391 190.802C943.029 190.557 942.659 190.339 942.137 190.267C941.879 190.236 941.568 190.26 941.273 190.389C940.98 190.512 940.732 190.734 940.571 190.967C940.148 191.618 940.117 192.257 940.128 193.094C940.155 193.93 940.304 194.978 940.589 196.337C941.307 199.714 943.661 204.862 947.142 211.112C952.362 220.46 960.123 232.142 968.664 242.962C977.211 253.782 986.51 263.73 994.913 269.62C994.924 269.627 994.937 269.636 994.946 269.643C1010.68 280.656 1023.58 281.022 1029.89 280.251C1029.84 280.291 1029.8 280.331 1029.76 280.372C1027.99 282.059 1025.89 284.204 1024.49 286.185C1023.85 287.116 1023.34 287.998 1023.11 288.916C1023 289.375 1022.96 289.865 1023.09 290.372C1023.21 290.869 1023.54 291.349 1023.98 291.654C1023.98 291.659 1023.99 291.664 1024 291.669C1024.37 291.931 1024.8 292.085 1025.26 292.175C1027 292.502 1028.98 292.141 1031.06 291.517C1036.02 290 1041.62 286.762 1043.69 285.515C1043.9 285.748 1044.15 286.027 1044.44 286.342C1043.78 286.217 1043.07 286.479 1042.66 287.069C1042.09 287.876 1042.29 288.983 1043.1 289.547L1058.62 300.417C1059.43 300.981 1060.53 300.788 1061.1 299.981C1061.66 299.176 1061.47 298.067 1060.66 297.503L1057.17 295.056C1057.93 295.253 1058.71 295.377 1059.5 295.413C1061.85 295.517 1063.86 295.379 1065.47 295.028C1067.06 294.658 1068.31 294.151 1069.08 293.102C1069.33 292.748 1069.51 292.312 1069.54 291.855C1069.59 291.166 1069.34 290.507 1068.94 289.951C1068.54 289.388 1067.98 288.879 1067.26 288.375C1065.32 287.015 1063.82 285.664 1062.78 284.618L1063.31 284.656C1063.63 284.752 1064.54 285.023 1065.92 285.397L1068.08 286.91C1068.85 287.451 1069.9 287.295 1070.48 286.573C1074.12 287.449 1078.8 288.449 1083.78 289.174C1089.29 289.975 1095.16 290.443 1100.42 290.024C1105.67 289.593 1110.37 288.308 1113.46 285.333C1114.31 284.506 1115.15 283.482 1115.99 282.28C1118.71 278.391 1121.49 272.643 1124.25 266.073C1128.37 256.226 1132.4 244.547 1135.79 234.788C1137.48 229.91 1139.01 225.511 1140.3 222.075C1140.95 220.356 1141.53 218.881 1142.05 217.713C1142.56 216.549 1143.01 215.682 1143.31 215.259L1143.44 215.084C1144.66 213.637 1146.31 212.497 1148.07 211.23C1149.81 209.963 1151.66 208.555 1153.11 206.483C1153.87 205.405 1154.51 204.153 1154.96 202.678C1156.42 203.122 1157.95 203.05 1159.51 202.56C1169.09 212.682 1182.88 224.209 1202.2 237.741C1217.02 248.121 1235.11 259.677 1257.07 272.666C1291.38 292.958 1321.67 309.317 1346.52 316.376C1358.95 319.901 1370.05 321.11 1379.64 319.23C1389.23 317.359 1397.28 312.326 1403.37 303.606C1405.69 300.284 1407.74 296.432 1409.51 292.017C1414.47 279.623 1425.01 258.858 1438 234.749C1457.49 198.579 1482.52 154.834 1502.67 120.139C1512.75 102.79 1521.61 87.7042 1527.95 76.9533C1531.12 71.5797 1533.65 67.2888 1535.4 64.3411C1537.15 61.3951 1538.1 59.7978 1538.1 59.7942C1538.4 59.2957 1538.27 58.6529 1537.8 58.3147L1537.15 59.2213L1537.8 58.3147L1514.06 41.3165L1547.3 64.5913C1554.01 125.561 1504.65 273.585 1439.87 366.073C1408.38 411.042 1373.24 442.88 1339.13 445.201C1233.72 452.375 1206.41 381.966 1124.82 400.41C1053.17 416.604 948.518 459.613 866.128 401.923C854.679 393.906 843.649 383.933 833.209 371.683C747.651 271.284 809.292 179.478 782.976 134.059C779.075 127.327 773.256 121.682 766.092 116.666C753.033 107.522 735.509 100.468 717.024 92.7415C698.535 85.0122 679.088 76.6123 662.173 64.7683C642.674 51.1148 626.542 32.8854 619.146 5.84867C605.684 -43.3659 629.111 -97.978 664.91 -149.092C692.259 -188.143 726.831 -225.152 757.694 -256.153C817.389 -316.121 882.09 -371.269 901.514 -387.59ZM1080.59 295.673C1081.4 296.238 1082.51 296.044 1083.07 295.238C1083.64 294.431 1083.44 293.324 1082.63 292.758L1076.72 288.618C1075.91 288.053 1074.81 288.248 1074.24 289.055C1073.68 289.861 1073.87 290.968 1074.68 291.532L1080.59 295.673ZM1075.86 302.427C1076.67 302.993 1077.78 302.796 1078.34 301.991C1078.91 301.186 1078.71 300.078 1077.9 299.513L1071.99 295.372C1071.18 294.808 1070.08 295.003 1069.51 295.808C1068.95 296.613 1069.14 297.722 1069.95 298.286L1075.86 302.427ZM1071.14 309.18C1071.94 309.746 1073.05 309.551 1073.61 308.744C1074.18 307.939 1073.98 306.831 1073.18 306.266L1067.26 302.125C1066.46 301.56 1065.35 301.756 1064.78 302.561C1064.22 303.368 1064.42 304.475 1065.22 305.039L1071.14 309.18Z" fill="white"/>
</g>
</g>
<defs>
<filter id="filter0_d_1_29" x="-4" y="0" width="1468" height="1200" filterUnits="userSpaceOnUse" color-interpolation-filters="sRGB">
<feFlood flood-opacity="0" result="BackgroundImageFix"/>
<feColorMatrix in="SourceAlpha" type="matrix" values="0 0 0 0 0 0 0 0 0 0 0 0 0 0 0 0 0 0 127 0" result="hardAlpha"/>
<feOffset dy="4"/>
<feGaussianBlur stdDeviation="2"/>
<feComposite in2="hardAlpha" operator="out"/>
<feColorMatrix type="matrix" values="0 0 0 0 0 0 0 0 0 0 0 0 0 0 0 0 0 0 0.25 0"/>
<feBlend mode="normal" in2="BackgroundImageFix" result="effect1_dropShadow_1_29"/>
<feBlend mode="normal" in="SourceGraphic" in2="effect1_dropShadow_1_29" result="shape"/>
</filter>
</defs>
</svg>
